<svg width="38" height="38" viewBox="0 0 38 38" fill="none" xmlns="http://www.w3.org/2000/svg">
<path d="M19.0001 3.16669C10.2601 3.16669 3.16675 10.26 3.16675 19C3.16675 27.74 10.2601 34.8334 19.0001 34.8334C27.7401 34.8334 34.8334 27.74 34.8334 19C34.8334 10.26 27.7401 3.16669 19.0001 3.16669ZM11.1942 28.9434C11.8751 27.5184 16.0234 26.125 19.0001 26.125C21.9767 26.125 26.1409 27.5184 26.8059 28.9434C24.6526 30.6534 21.9451 31.6667 19.0001 31.6667C16.0551 31.6667 13.3476 30.6534 11.1942 28.9434ZM29.0701 26.6475C26.8059 23.8925 21.3118 22.9584 19.0001 22.9584C16.6884 22.9584 11.1942 23.8925 8.93008 26.6475C7.31508 24.5259 6.33342 21.8817 6.33342 19C6.33342 12.0175 12.0176 6.33335 19.0001 6.33335C25.9826 6.33335 31.6668 12.0175 31.6668 19C31.6668 21.8817 30.6851 24.5259 29.0701 26.6475ZM19.0001 9.50002C15.9284 9.50002 13.4584 11.97 13.4584 15.0417C13.4584 18.1134 15.9284 20.5834 19.0001 20.5834C22.0718 20.5834 24.5417 18.1134 24.5417 15.0417C24.5417 11.97 22.0718 9.50002 19.0001 9.50002ZM19.0001 17.4167C17.6859 17.4167 16.6251 16.3559 16.6251 15.0417C16.6251 13.7275 17.6859 12.6667 19.0001 12.6667C20.3142 12.6667 21.3751 13.7275 21.3751 15.0417C21.3751 16.3559 20.3142 17.4167 19.0001 17.4167Z" fill="#868686"/>
</svg>
