<svg width="38" height="38" viewBox="0 0 38 38" fill="none" xmlns="http://www.w3.org/2000/svg">
<path d="M28.5001 20.5834V31.6667H6.33341V9.50002H14.2817C14.3609 8.37585 14.6301 7.31502 15.0417 6.33335H6.33341C4.59175 6.33335 3.16675 7.75835 3.16675 9.50002V31.6667C3.16675 33.4084 4.59175 34.8334 6.33341 34.8334H28.5001C30.2417 34.8334 31.6667 33.4084 31.6667 31.6667V23.75L28.5001 20.5834ZM30.5584 14.0759C31.2551 12.9675 31.6667 11.685 31.6667 10.2917C31.6667 6.34919 28.4842 3.16669 24.5417 3.16669C20.5992 3.16669 17.4167 6.34919 17.4167 10.2917C17.4167 14.2342 20.5992 17.4167 24.5259 17.4167C25.9192 17.4167 27.2176 17.005 28.3101 16.3084L33.2501 21.2484L35.4984 19L30.5584 14.0759ZM24.5417 14.25C22.3567 14.25 20.5834 12.4767 20.5834 10.2917C20.5834 8.10669 22.3567 6.33335 24.5417 6.33335C26.7267 6.33335 28.5001 8.10669 28.5001 10.2917C28.5001 12.4767 26.7267 14.25 24.5417 14.25Z" fill="#E37739"/>
<path d="M9.5 23.75H22.1667L19.7917 34.8333H11.875L9.5 23.75Z" fill="#E37739"/>
<path d="M19.0001 25.3333C19.0001 21.8355 17.5823 19 15.8334 19C14.0845 19 12.6667 21.8355 12.6667 25.3333" stroke="#E37739"/>
</svg>
